<svg width="24" height="24" viewBox="0 0 24 24" fill="none" xmlns="http://www.w3.org/2000/svg">
<path d="M20.096 5.5568C18.1568 3.9984 15.0904 3.7344 14.9608 3.7232C14.756 3.7056 14.5616 3.8216 14.4776 4.0088C14.4744 4.0152 14.3032 4.512 14.1376 4.9912C16.3912 5.3856 17.9224 6.2608 18.004 6.3088C18.3864 6.5312 18.5144 7.0216 18.2912 7.4032C18.1432 7.6576 17.8752 7.8 17.6 7.8C17.4632 7.8 17.3256 7.7656 17.1992 7.692C17.1768 7.6784 14.9304 6.4 12.0016 6.4C9.07199 6.4 6.82479 7.6792 6.80239 7.692C6.42079 7.9136 5.93119 7.7832 5.70959 7.4008C5.48799 7.02 5.61679 6.5312 5.99759 6.3088C6.07919 6.2608 7.61599 5.3824 9.87599 4.9888C9.70159 4.504 9.52559 4.0152 9.52239 4.0088C9.43839 3.8208 9.24399 3.7024 9.03919 3.7232C8.90959 3.7336 5.84319 3.9976 3.87839 5.5776C2.85119 6.5264 0.799988 12.0736 0.799988 16.8696C0.799988 16.9544 0.821588 17.0368 0.863988 17.1104C2.28079 19.5984 6.14319 20.2496 7.02319 20.2776C7.02879 20.2784 7.03359 20.2784 7.03839 20.2784C7.19359 20.2784 7.33999 20.204 7.43199 20.0784L8.38399 18.7888C6.29599 18.2856 5.19199 17.4944 5.12559 17.4456C4.77039 17.184 4.69359 16.6832 4.95519 16.3272C5.21599 15.9728 5.71519 15.8944 6.07039 16.1544C6.09999 16.1736 8.13759 17.6 12 17.6C15.8776 17.6 17.9096 16.168 17.9296 16.1536C18.2848 15.896 18.7856 15.9736 19.0456 16.3304C19.3048 16.6856 19.2296 17.1832 18.876 17.444C18.8096 17.4928 17.7112 18.2824 15.628 18.7856L16.568 20.0776C16.66 20.204 16.8064 20.2776 16.9616 20.2776C16.9672 20.2776 16.972 20.2776 16.9768 20.2768C17.8576 20.2488 21.72 19.5976 23.136 17.1096C23.1784 17.036 23.2 16.9536 23.2 16.8688C23.2 12.0736 21.1488 6.5264 20.096 5.5568ZM8.79999 15.2C7.91599 15.2 7.19999 14.3048 7.19999 13.2C7.19999 12.0952 7.91599 11.2 8.79999 11.2C9.68399 11.2 10.4 12.0952 10.4 13.2C10.4 14.3048 9.68399 15.2 8.79999 15.2ZM15.2 15.2C14.316 15.2 13.6 14.3048 13.6 13.2C13.6 12.0952 14.316 11.2 15.2 11.2C16.084 11.2 16.8 12.0952 16.8 13.2C16.8 14.3048 16.084 15.2 15.2 15.2Z" fill="black"/>
</svg>
