<svg width="24" height="24" viewBox="0 0 24 24" fill="none" xmlns="http://www.w3.org/2000/svg">
<path d="M19.975 21.45C17.7584 21.45 15.6 20.954 13.5 19.962C11.4 18.9707 9.54169 17.6627 7.92502 16.038C6.30836 14.4127 5.00436 12.554 4.01302 10.462C3.02102 8.37067 2.52502 6.21667 2.52502 4C2.52502 3.58333 2.67102 3.22933 2.96302 2.938C3.25436 2.646 3.60836 2.5 4.02502 2.5H8.07502C8.52502 2.5 8.89602 2.61667 9.18802 2.85C9.47936 3.08333 9.67502 3.41667 9.77502 3.85L10.4 7.05C10.4834 7.43333 10.4834 7.77067 10.4 8.062C10.3167 8.354 10.15 8.61667 9.90002 8.85L7.37502 11.175C8.00836 12.2083 8.77936 13.179 9.68802 14.087C10.596 14.9957 11.5834 15.775 12.65 16.425L15.1 14.025C15.3667 13.775 15.6667 13.604 16 13.512C16.3334 13.4207 16.6834 13.4083 17.05 13.475L20.125 14.15C20.5584 14.25 20.8917 14.4373 21.125 14.712C21.3584 14.9873 21.475 15.3417 21.475 15.775V19.925C21.475 20.3583 21.3294 20.7207 21.038 21.012C20.746 21.304 20.3917 21.45 19.975 21.45V21.45ZM6.10002 8.75L7.75002 7.225L7.35002 5.15H5.22502C5.29169 5.76667 5.39169 6.375 5.52502 6.975C5.65836 7.575 5.85002 8.16667 6.10002 8.75ZM15.1 17.75C15.7 18 16.3084 18.2043 16.925 18.363C17.5417 18.521 18.175 18.6333 18.825 18.7V16.575L16.75 16.125L15.1 17.75Z" fill="black"/>
</svg>
